<?xml version="1.0"?>
<svg xmlns="http://www.w3.org/2000/svg" height="512px" viewBox="0 -24 512 512" width="512px" class=""><g><path d="m356.332031 370.667969h-100.332031l-10.667969 36.332031 10.667969 36.335938h100.332031zm0 0" fill="#596c76" data-original="#596C76" class=""/><path d="m155.667969 370.667969h100.332031v72.667969h-100.332031zm0 0" fill="#7a8c98" data-original="#7A8C98" class=""/><path d="m389.332031 434.667969h-133.332031l-10.667969 15 10.667969 15h133.332031zm0 0" fill="#c5d3dd" data-original="#C5D3DD" class="active-path" style="fill:#7A8C98" data-old_color="#C5D3DD"/><path d="m122.667969 434.667969h133.332031v30h-133.332031zm0 0" fill="#d9e7ec" data-original="#D9E7EC" class=""/><path d="m512 75c0-41.355469-33.644531-75-75-75h-181l-21.332031 172.335938 21.332031 138.664062 256-21.332031zm0 0" fill="#d9e7ec" data-original="#D9E7EC" class=""/><path d="m75 0c-41.355469 0-75 33.644531-75 75v214.667969l256 21.332031v-311zm0 0" fill="#e8f0f3" data-original="#E8F0F3"/><path d="m336.496094 171.714844-26.515625 92.796875h-53.980469l-10.664062-89.664063 10.664062-85.332031h17.523438zm0 0" fill="#9facba" data-original="#9FACBA"/><path d="m202.019531 264.511719-26.515625-92.796875 62.972656-82.199219h17.523438v174.996094zm0 0" fill="#c5d3dd" data-original="#C5D3DD" class="active-path" style="fill:#7A8C98" data-old_color="#C5D3DD"/><path d="m271 260.179688h-15l-10.664062-42.664063 10.664062-32.003906h15zm0 0" fill="#596c76" data-original="#596C76" class=""/><path d="m241 185.511719h15v74.667969h-15zm0 0" fill="#7a8c98" data-original="#7A8C98" class=""/><path d="m256 249.261719h58.394531l24.136719 72.484375v.265625l-82.53125 12.835937-10.664062-42.667968zm0 0" fill="#0093fd" data-original="#0093FD"/><path d="m197.605469 249.261719h58.394531v85.585937l-82.53125-12.835937v-.265625zm0 0" fill="#12b0ff" data-original="#12B0FF"/><path d="m256 289.667969-21.332031 53.335937 21.332031 44.191406h181c41.355469 0 75-33.644531 75-75v-22.527343zm0 0" fill="#b6c4cf" data-original="#B6C4CF" class="" style="fill:#7A8C98" data-old_color="#596C76"/><path d="m0 289.667969v22.527343c0 41.355469 33.644531 75 75 75h181v-97.527343zm0 0" fill="#c5d3dd" data-original="#C5D3DD" class="active-path" style="fill:#7A8C98" data-old_color="#C5D3DD"/><path d="m256 61.335938-10.667969 15 10.667969 15c74.070312 0 134.332031 60.261718 134.332031 134.332031h30c0-90.613281-73.71875-164.332031-164.332031-164.332031zm0 0" fill="#12b0ff" data-original="#12B0FF"/><path d="m91.667969 225.667969h30c0-74.070313 60.261719-134.332031 134.332031-134.332031v-30c-90.613281 0-164.332031 73.71875-164.332031 164.332031zm0 0" fill="#36cff5" data-original="#36CFF5" class="" style="fill:#36CFF5"/></g> </svg>
