<!-- Generator: Adobe Illustrator 23.0.0, SVG Export Plug-In  -->
<svg version="1.1" xmlns="http://www.w3.org/2000/svg" xmlns:xlink="http://www.w3.org/1999/xlink" x="0px" y="0px"
	 width="295.34px" height="322.61px" viewBox="0 0 295.34 322.61" style="enable-background:new 0 0 295.34 322.61;"
	 xml:space="preserve">
<style type="text/css">
	.st0{fill:#E9C361;}
</style>
<defs>
</defs>
<path class="st0" d="M149.98,321.39l71.48-39.15l71.48-38.97l2.4-1.23v-2.62v-78.12V83.19v-2.45l-2.4-1.22l-71.48-39.15L149.98,1.4
	l-2.4-1.4l-2.22,1.4L73.88,40.37L2.4,79.52L0,80.74v2.45v78.12v78.12v2.62l2.4,1.23l71.48,38.97l71.48,39.15l2.22,1.22
	L149.98,321.39z M216.84,274.72l-69.27,37.75L78.5,274.72L9.42,236.81v-75.5v-75.5L78.5,48.06l69.08-37.75l69.27,37.75l69.08,37.75
	v75.5v75.5L216.84,274.72z"/>
</svg>
