	<!-- Generator: Adobe Illustrator 23.0.0, SVG Export Plug-In  -->
<svg version="1.1" xmlns="http://www.w3.org/2000/svg" xmlns:xlink="http://www.w3.org/1999/xlink" x="0px" y="0px"
	 width="486.96px" height="185.73px" viewBox="0 0 486.96 185.73" style="enable-background:new 0 0 486.96 185.73;"
	 xml:space="preserve">
<style type="text/css">
	.st0{fill:#FFFFFF;}
</style>
<defs>
</defs>
<g>
	<g>
		<path class="st0" d="M0,94.64c1.11-4.01,2.48-7.86,3.85-11.72c2.06-3.46,4.04-6.96,6.06-10.44l12.07-20.91l12.07-20.91l6.04-10.45
			c2.67-3.1,5.32-6.22,8.2-9.2c-1.14,3.99-2.52,7.84-3.87,11.7l-6.04,10.45L26.31,54.07L14.24,74.98c-2,3.49-4.05,6.96-6.01,10.47
			C5.56,88.56,2.91,91.67,0,94.64z"/>
	</g>
	<g>
		<path class="st0" d="M104.04,93.36c-3.79,0-7.16-0.88-10.12-2.63c-2.95-1.75-5.28-4.14-6.98-7.16c-1.7-3.02-2.56-6.43-2.56-10.22
			c0-3.84,0.82-7.27,2.45-10.3c1.63-3.02,3.86-5.41,6.7-7.16c2.83-1.75,6.1-2.63,9.79-2.63c2.93,0,5.63,0.58,8.1,1.73
			c2.47,1.15,4.64,2.88,6.52,5.18c0.53,0.58,0.72,1.19,0.58,1.84c-0.14,0.65-0.55,1.21-1.22,1.69c-0.53,0.38-1.12,0.52-1.76,0.4
			c-0.65-0.12-1.21-0.47-1.69-1.04c-2.78-3.17-6.29-4.75-10.51-4.75c-2.69,0-5.05,0.65-7.09,1.94c-2.04,1.3-3.62,3.07-4.75,5.33
			c-1.13,2.26-1.69,4.85-1.69,7.78c0,2.88,0.6,5.45,1.8,7.7c1.2,2.26,2.88,4.03,5.04,5.33c2.16,1.3,4.63,1.94,7.42,1.94
			c1.87,0,3.59-0.25,5.15-0.76c1.56-0.5,2.94-1.28,4.14-2.34c0.58-0.48,1.18-0.74,1.8-0.79c0.62-0.05,1.2,0.14,1.73,0.58
			c0.58,0.53,0.9,1.13,0.97,1.8c0.07,0.67-0.16,1.25-0.68,1.73C113.64,91.75,109.27,93.36,104.04,93.36z"/>
		<path class="st0" d="M132.19,76.94c-0.86,0-1.55-0.26-2.05-0.79c-0.5-0.53-0.76-1.2-0.76-2.02V39.57c0-0.86,0.25-1.55,0.76-2.05
			c0.5-0.5,1.19-0.76,2.05-0.76c0.82,0,1.48,0.25,1.98,0.76c0.5,0.5,0.76,1.19,0.76,2.05v34.56c0,0.82-0.25,1.49-0.76,2.02
			S133.01,76.94,132.19,76.94z M132.19,93c-0.86,0-1.55-0.25-2.05-0.76c-0.5-0.5-0.76-1.16-0.76-1.98V56.42
			c0-0.86,0.25-1.55,0.76-2.05c0.5-0.5,1.19-0.76,2.05-0.76c0.82,0,1.48,0.25,1.98,0.76s0.76,1.19,0.76,2.05v33.84
			c0,0.82-0.25,1.48-0.76,1.98S133.01,93,132.19,93z M163.16,93c-0.82,0-1.49-0.26-2.02-0.79c-0.53-0.53-0.79-1.18-0.79-1.94V71.54
			c0-2.98-0.56-5.42-1.69-7.34c-1.13-1.92-2.66-3.36-4.61-4.32c-1.94-0.96-4.14-1.44-6.59-1.44c-2.35,0-4.48,0.46-6.37,1.37
			c-1.9,0.91-3.4,2.16-4.5,3.74c-1.1,1.58-1.66,3.38-1.66,5.4h-3.96c0.1-3.02,0.91-5.72,2.45-8.1c1.54-2.38,3.58-4.25,6.12-5.62
			c2.54-1.37,5.38-2.05,8.5-2.05c3.41,0,6.46,0.71,9.14,2.12c2.69,1.42,4.81,3.49,6.37,6.23c1.56,2.74,2.34,6.07,2.34,10.01v18.72
			c0,0.77-0.27,1.42-0.79,1.94C164.57,92.73,163.92,93,163.16,93z"/>
		<path class="st0" d="M182.02,46.13c-1.06,0-1.97-0.38-2.74-1.15c-0.77-0.77-1.15-1.7-1.15-2.81c0-1.2,0.4-2.15,1.19-2.84
			c0.79-0.7,1.72-1.04,2.77-1.04c1.01,0,1.91,0.35,2.7,1.04c0.79,0.7,1.19,1.64,1.19,2.84c0,1.1-0.38,2.04-1.15,2.81
			C184.06,45.74,183.12,46.13,182.02,46.13z M182.09,93c-0.86,0-1.55-0.25-2.05-0.76s-0.76-1.19-0.76-2.05V56.42
			c0-0.86,0.25-1.55,0.76-2.05s1.19-0.76,2.05-0.76c0.82,0,1.48,0.25,1.98,0.76s0.76,1.19,0.76,2.05v33.77
			c0,0.86-0.25,1.55-0.76,2.05S182.91,93,182.09,93z"/>
		<path class="st0" d="M201.67,93c-0.82,0-1.48-0.25-1.98-0.76s-0.76-1.16-0.76-1.98V39.5c0-0.82,0.25-1.48,0.76-1.98
			c0.5-0.5,1.16-0.76,1.98-0.76c0.82,0,1.48,0.25,1.98,0.76c0.5,0.5,0.76,1.16,0.76,1.98v50.76c0,0.82-0.25,1.48-0.76,1.98
			S202.49,93,201.67,93z M203.47,79.82l-3.38-3.67l24.62-22.25c0.58-0.53,1.18-0.78,1.8-0.76s1.2,0.32,1.73,0.9
			c0.53,0.58,0.78,1.19,0.76,1.84c-0.02,0.65-0.32,1.21-0.9,1.69L203.47,79.82z M228.31,92.64c-0.63,0.53-1.27,0.76-1.94,0.68
			c-0.67-0.07-1.25-0.42-1.73-1.04l-16.06-19.73l3.89-3.46l16.2,19.94c0.48,0.58,0.7,1.19,0.65,1.84
			C229.27,91.52,228.94,92.11,228.31,92.64z"/>
		<path class="st0" d="M257.26,93.43c-3.41,0-6.46-0.71-9.14-2.12c-2.69-1.42-4.81-3.49-6.37-6.23s-2.34-6.07-2.34-10.01V56.35
			c0-0.77,0.26-1.42,0.79-1.94c0.53-0.53,1.18-0.79,1.94-0.79c0.82,0,1.49,0.26,2.02,0.79c0.53,0.53,0.79,1.18,0.79,1.94v18.72
			c0,2.98,0.56,5.42,1.69,7.34c1.13,1.92,2.66,3.36,4.61,4.32c1.94,0.96,4.14,1.44,6.59,1.44c2.35,0,4.47-0.46,6.37-1.37
			c1.9-0.91,3.39-2.16,4.5-3.74c1.1-1.58,1.66-3.38,1.66-5.4h3.96c-0.14,3.02-0.97,5.72-2.48,8.1c-1.51,2.38-3.54,4.25-6.08,5.62
			C263.21,92.75,260.38,93.43,257.26,93.43z M273.1,93c-0.82,0-1.48-0.25-1.98-0.76c-0.5-0.5-0.76-1.19-0.76-2.05V56.35
			c0-0.82,0.25-1.48,0.76-1.98c0.5-0.5,1.16-0.76,1.98-0.76c0.82,0,1.49,0.25,2.02,0.76s0.79,1.16,0.79,1.98v33.84
			c0,0.86-0.26,1.55-0.79,2.05S273.91,93,273.1,93z"/>
		<path class="st0" d="M306.22,93.36c-3.7,0-7.01-0.88-9.94-2.63c-2.93-1.75-5.25-4.14-6.95-7.16c-1.71-3.02-2.56-6.43-2.56-10.22
			c0-3.84,0.88-7.27,2.63-10.3c1.75-3.02,4.14-5.41,7.16-7.16c3.02-1.75,6.43-2.63,10.22-2.63c3.79,0,7.19,0.88,10.19,2.63
			c3,1.75,5.38,4.14,7.13,7.16c1.75,3.02,2.65,6.46,2.7,10.3l-2.23,1.73c0,3.46-0.8,6.56-2.41,9.32c-1.61,2.76-3.79,4.94-6.55,6.55
			C312.85,92.55,309.72,93.36,306.22,93.36z M306.79,88.32c2.78,0,5.27-0.65,7.45-1.94c2.18-1.3,3.91-3.08,5.18-5.36
			c1.27-2.28,1.91-4.83,1.91-7.67c0-2.88-0.64-5.45-1.91-7.7c-1.27-2.25-3-4.04-5.18-5.36c-2.19-1.32-4.67-1.98-7.45-1.98
			c-2.74,0-5.21,0.66-7.42,1.98c-2.21,1.32-3.96,3.11-5.26,5.36c-1.3,2.26-1.94,4.82-1.94,7.7c0,2.83,0.65,5.39,1.94,7.67
			c1.3,2.28,3.05,4.07,5.26,5.36C301.58,87.67,304.06,88.32,306.79,88.32z M324,93c-0.82,0-1.49-0.25-2.02-0.76
			s-0.79-1.16-0.79-1.98V77.95l1.37-5.69l4.25,1.08v16.92c0,0.82-0.26,1.48-0.79,1.98C325.49,92.75,324.81,93,324,93z"/>
		<path class="st0" d="M346.1,93c-1.92,0-3.64-0.53-5.15-1.58c-1.51-1.06-2.69-2.52-3.53-4.39s-1.26-4.03-1.26-6.48V39.5
			c0-0.82,0.25-1.48,0.76-1.98c0.5-0.5,1.16-0.76,1.98-0.76c0.82,0,1.48,0.25,1.98,0.76c0.5,0.5,0.76,1.16,0.76,1.98v41.04
			c0,2.06,0.42,3.74,1.26,5.04c0.84,1.3,1.91,1.94,3.2,1.94h1.8c0.72,0,1.3,0.25,1.73,0.76s0.65,1.16,0.65,1.98
			c0,0.82-0.3,1.48-0.9,1.98c-0.6,0.5-1.38,0.76-2.34,0.76H346.1z"/>
		<path class="st0" d="M361.8,46.13c-1.06,0-1.97-0.38-2.74-1.15c-0.77-0.77-1.15-1.7-1.15-2.81c0-1.2,0.4-2.15,1.19-2.84
			c0.79-0.7,1.72-1.04,2.77-1.04c1.01,0,1.91,0.35,2.7,1.04c0.79,0.7,1.19,1.64,1.19,2.84c0,1.1-0.38,2.04-1.15,2.81
			C363.84,45.74,362.9,46.13,361.8,46.13z M361.87,93c-0.86,0-1.55-0.25-2.05-0.76s-0.76-1.19-0.76-2.05V56.42
			c0-0.86,0.25-1.55,0.76-2.05s1.19-0.76,2.05-0.76c0.82,0,1.48,0.25,1.98,0.76s0.76,1.19,0.76,2.05v33.77
			c0,0.86-0.25,1.55-0.76,2.05S362.69,93,361.87,93z"/>
	</g>
	<g>
		<path class="st0" d="M19.33,0.27l-0.05-0.19c-0.04-0.11,0.01-0.1,0.03,0l0.14,0.37l0.27,0.74l0.53,1.48l1.07,2.96
			c0.72,1.97,1.46,3.93,2.21,5.89c1.51,3.91,3.08,7.8,4.71,11.66c3.24,7.73,6.72,15.36,10.53,22.81
			c3.81,7.45,7.95,14.74,12.58,21.68c4.64,6.92,9.78,13.54,15.82,19.19c3.02,2.8,6.26,5.37,9.78,7.41
			c3.51,2.03,7.33,3.52,11.28,4.07c4.06,0.43,8.31,0.8,12.45,1.2l12.52,1.01c16.71,1.22,33.45,2.02,50.21,2.54
			c33.51,0.98,67.04,1.15,100.56,0.5c33.52-0.63,67.03-1.9,100.48-4.06c16.72-1.05,33.43-2.33,50.08-4.03
			c8.32-0.85,16.64-1.8,24.88-3.01c4.12-0.6,8.23-1.28,12.29-2.07c1.02-0.18,2.01-0.43,3.01-0.65c0.99-0.24,2.03-0.43,2.97-0.7
			c1.91-0.51,3.78-1.16,5.57-1.97c7.19-3.17,13.24-8.9,16.53-16.01c1.65-3.53,2.63-7.39,2.69-11.23c0.08-3.83-0.83-7.65-2.84-10.72
			c-1.99-3.09-5.15-5.27-8.78-6.24c-3.63-1-7.63-0.94-11.54-0.25c-1.96,0.34-3.93,0.83-5.79,1.44c-1.88,0.66-3.75,1.42-5.59,2.31
			c-3.69,1.75-7.28,3.81-10.8,6c-7.03,4.41-13.81,9.29-20.45,14.36c-6.64,5.07-13.14,10.34-19.56,15.72
			c-12.83,10.76-25.32,21.95-37.65,33.31c-24.74,22.65-48.71,46.14-72.37,69.95c5.7-6.16,11.47-12.25,17.26-18.33
			c5.82-6.05,11.68-12.06,17.57-18.04c11.79-11.95,23.72-23.77,35.84-35.4c12.18-11.57,24.55-22.94,37.28-33.93
			c6.37-5.49,12.83-10.88,19.46-16.09c6.63-5.2,13.41-10.24,20.54-14.84c3.57-2.29,7.24-4.47,11.11-6.37c1.93-0.96,3.93-1.82,6-2.57
			c2.12-0.72,4.23-1.28,6.4-1.68c4.32-0.79,8.93-0.95,13.42,0.25c2.24,0.58,4.41,1.58,6.37,2.91c1.94,1.36,3.64,3.08,4.94,5.06
			c2.63,3.95,3.72,8.67,3.66,13.2c-0.05,4.56-1.16,9.02-3.03,13.09c-3.72,8.18-10.6,14.76-18.73,18.41
			c-2.03,0.92-4.13,1.67-6.27,2.26c-1.08,0.32-2.1,0.51-3.15,0.76c-1.05,0.23-2.09,0.5-3.14,0.68c-4.18,0.83-8.35,1.53-12.53,2.14
			c-8.35,1.25-16.72,2.22-25.08,3.1c-16.74,1.75-33.5,3.07-50.27,4.16c-33.55,2.08-67.13,3.33-100.72,3.8
			c-18.3,0.22-32.09,0.23-50.4,0.01c-16.8-0.18-33.6-0.65-50.38-1.41c-16.79-0.75-33.56-1.78-50.31-3.24l-12.55-1.18
			c-4.2-0.47-8.31-0.87-12.58-1.39c-4.37-0.67-8.49-2.36-12.2-4.57c-3.71-2.22-7.07-4.93-10.12-7.91
			c-6.11-5.97-11.16-12.82-15.71-19.92c-4.53-7.12-8.53-14.55-12.19-22.12c-3.66-7.57-6.99-15.3-10.05-23.12
			c-1.52-3.92-2.97-7.85-4.37-11.82c-0.7-1.98-1.38-3.97-2.04-5.96L20.15,2.7l-0.48-1.5l-0.24-0.75L19.3,0.08
			c-0.03-0.09-0.04-0.11-0.02,0L19.33,0.27z"/>
	</g>
</g>
</svg>
